<svg xmlns="http://www.w3.org/2000/svg" viewBox="40 0 490 400" width="490" height="400">
  <polyline fill="none" stroke="#0078BE" stroke-width="14" stroke-linecap="round" stroke-linejoin="round" points="321.0,40.0 321.0,369.0 490.0,369.0"/>
  <polyline fill="none" stroke="#A2A4A1" stroke-width="14" stroke-linecap="round" stroke-linejoin="round" points="260.0,49.0 330.0,49.0"/>
  <polyline fill="none" stroke="#A2A4A1" stroke-width="14" stroke-linecap="round" stroke-linejoin="round" points="260.0,49.0 160.3,49.0 153.3,49.5 146.8,50.8 140.5,52.9 134.5,55.8 129.0,59.6 124.0,64.0 119.6,69.0 115.8,74.5 112.9,80.5 110.8,86.8 109.5,93.3 109.0,100.3 109.0,139.7 109.5,146.7 110.8,153.2 112.9,159.5 115.8,165.5 119.6,171.0 124.0,176.0 129.0,180.4 134.5,184.2 140.5,187.1 146.8,189.2 153.3,190.5 160.3,191.0 200.3,191.0 209.0,191.6 217.9,193.3 226.4,196.2 234.5,200.2 242.0,205.2 248.8,211.2 254.8,218.0 259.8,225.5 263.8,233.6 266.7,242.1 268.4,251.0 269.0,259.7 269.0,300.3 268.4,309.0 266.7,317.9 263.8,326.4 259.8,334.5 254.8,342.0 248.8,348.8 242.0,354.8 234.5,359.8 226.4,363.8 217.9,366.7 209.0,368.4 200.3,369.0 100.0,369.0"/>
  <polyline fill="none" stroke="#ED8B00" stroke-width="14" stroke-linecap="round" stroke-linejoin="round" points="100.0,351.0 199.7,351.0 206.7,350.5 213.2,349.2 219.5,347.1 225.5,344.2 231.0,340.4 236.0,336.0 240.4,331.0 244.2,325.5 247.1,319.5 249.2,313.2 250.5,306.7 251.0,299.7 251.0,260.3 250.5,253.3 249.2,246.8 247.1,240.5 244.2,234.5 240.4,229.0 236.0,224.0 231.0,219.6 225.5,215.8 219.5,212.9 213.2,210.8 206.7,209.5 199.7,209.0 159.7,209.0 151.0,208.4 142.1,206.7 133.6,203.8 125.5,199.8 118.0,194.8 111.2,188.8 105.2,182.0 100.2,174.5 96.2,166.4 93.3,157.9 91.6,149.0 91.0,140.3 91.0,99.7 91.6,91.0 93.3,82.1 96.2,73.6 100.2,65.5 105.2,58.0 111.2,51.2 118.0,45.2 125.5,40.2 133.6,36.2 142.1,33.3 151.0,31.6 159.7,31.0 260.0,31.0 339.0,31.0 339.0,40.0 339.0,351.0 490.0,351.0"/>
  <circle cx="100" cy="360" r="14" fill="white" stroke="#333333" stroke-width="3"/>
  <circle cx="100" cy="120" r="14" fill="white" stroke="#333333" stroke-width="3"/>
  <circle cx="260" cy="280" r="14" fill="white" stroke="#333333" stroke-width="3"/>
  <circle cx="330" cy="40" r="14" fill="white" stroke="#333333" stroke-width="3"/>
  <circle cx="330" cy="360" r="14" fill="white" stroke="#333333" stroke-width="3"/>
  <circle cx="490" cy="360" r="14" fill="white" stroke="#333333" stroke-width="3"/>
</svg>